<svg xmlns="http://www.w3.org/2000/svg" viewBox="0 0 79 72.9"><defs><style>.cls-1{isolation:isolate;}.cls-2{fill:#fff;}</style></defs><title>Аршин1</title><g id="Аршин"><g id="Rounded_Rectangle_1-2" data-name="Rounded Rectangle 1"><rect class="cls-2" width="4" height="53"/></g><g id="Rounded_Rectangle_1_copy_2-2" data-name="Rounded Rectangle 1 copy 2"><rect class="cls-2" x="15" y="28" width="4" height="25"/></g><g id="Rounded_Rectangle_1_copy_3-2" data-name="Rounded Rectangle 1 copy 3"><rect class="cls-2" x="30" y="40" width="4" height="13"/></g><g id="Rounded_Rectangle_1_copy_4-2" data-name="Rounded Rectangle 1 copy 4"><rect class="cls-2" x="45" y="40" width="4" height="13"/></g><g id="Rounded_Rectangle_1_copy_5-2" data-name="Rounded Rectangle 1 copy 5"><rect class="cls-2" x="60" y="28" width="4" height="25"/></g><g id="Rounded_Rectangle_1_copy-2" data-name="Rounded Rectangle 1 copy"><rect class="cls-2" x="75" width="4" height="53"/></g><path class="cls-2" d="M35.91.79h6.87l14,33.6H48.54l-2.79-7.06H32.46l-2.79,7.06H21.94Zm-.57,19.34h7.53l-3.74-9.5Z"/><path class="cls-2" d="M5.66,60.23H7L12.4,72.9H10.76L9.14,69.08H3.39L1.79,72.9H.24ZM4,67.64H8.54L6.27,62.26Z"/><path class="cls-2" d="M17.25,72.9V60.3l3.3,0c3.6,0,4.66,2,4.66,3.91s-1.46,4-4.54,4c-.5,0-1.26,0-1.89-.07V72.9Zm1.53-11.16V66.6c.61.05,1.21.09,1.84.09,1.85,0,3-1,3-2.54s-.9-2.45-2.9-2.45C20.19,61.7,19.38,61.72,18.78,61.74Z"/><path class="cls-2" d="M30.7,60.3h1.53V71.46H37V60.3h1.53V71.46H43.3V60.3h1.53V72.9H30.7Z"/><path class="cls-2" d="M51.31,72.9V60.3h1.53V70.38L60.49,60.3h1.35V72.9H60.31V62.82L52.66,72.9Z"/><path class="cls-2" d="M76.78,67.19H69.85V72.9H68.32V60.3h1.53v5.45h6.93V60.3h1.53V72.9H76.78Z"/></g></svg>